<?xml version="1.0" encoding="UTF-8"?>
<!DOCTYPE svg PUBLIC "-//W3C//DTD SVG 1.1//EN" "http://www.w3.org/Graphics/SVG/1.1/DTD/svg11.dtd">
<!-- Creator: CorelDRAW (Evaluation Version) -->
<svg xmlns="http://www.w3.org/2000/svg" xml:space="preserve" width="6855px" height="6855px" version="1.1" style="shape-rendering:geometricPrecision; text-rendering:geometricPrecision; image-rendering:optimizeQuality; fill-rule:evenodd; clip-rule:evenodd"
viewBox="0 0 1426.09 1426.09"
 xmlns:xlink="http://www.w3.org/1999/xlink"
 xmlns:xodm="http://www.corel.com/coreldraw/odm/2003">
 <defs>
  <style type="text/css">
   <![CDATA[
    .fil1 {fill:black}
    .fil0 {fill:#F6F46E}
    .fil2 {fill:white}
   ]]>
  </style>
 </defs>
 <g id="Layer_x0020_1">
  <metadata id="CorelCorpID_0Corel-Layer"/>
  <g id="_1904685246608">
   <rect class="fil0" width="1426.09" height="1426.09" rx="433.21" ry="433.21"/>
   <path class="fil1" d="M711.26 156.26c77.45,0 140.7,63.24 140.7,140.69l0 250.95c2.04,45.07 21.75,87.55 54.78,118.23l0.17 0.16c10.29,9.52 21.72,17.76 34,24.51l69.47 38.19 -3.16 1.05 146.99 84.86c28.18,16.28 49.46,41.59 60.88,71.43 14.22,37.18 10.79,85.82 -9.38,120.76 -38.67,66.98 -125.21,90.17 -192.19,51.5l-227.32 -131.24c-47.25,-20.82 -101.5,-19.29 -147.52,4.21l-224.85 129.82c-66.98,38.67 -153.52,15.48 -192.19,-51.5 -39.15,-67.8 -16.85,-151.48 49.82,-191.21 0.56,-0.33 1.12,-0.66 1.68,-0.98l210.9 -121.76c52.26,-30.18 85.25,-85.27 86.53,-145.65l0 -253.63c0,-80.58 64.18,-140.39 140.69,-140.39zm-482.41 313.87l-0.26 -0.88 5.68 -10.82c1.22,-2.39 2.51,-4.77 3.87,-7.13 0.09,-0.16 0.18,-0.32 0.27,-0.48 46.22,-80.06 148.97,-107.6 229.04,-61.37 0.16,0.09 0.32,0.19 0.48,0.28 8.51,4.95 16.42,10.54 23.71,16.67 25.2,21.19 43.69,49.42 53,81.54l3.87 13.33 -0.48 0.91c7.63,38.48 1.9,79.76 -19.21,116.32 -46.22,80.06 -148.97,107.6 -229.04,61.37 -73.76,-42.59 -102.94,-133.14 -70.93,-209.74zm765.09 -97.02l0.56 -0.88 14.92 -2.66c23.56,-4.21 47.26,-3.19 69.65,2.38 42.72,10.56 81.26,37.76 104.98,78.76 0.02,0.04 0.04,0.08 0.06,0.11 0.04,0.06 0.07,0.12 0.1,0.18 12.45,21.62 19.53,44.89 21.65,68.24 3.35,36.43 -5.23,73.63 -25.53,105.54l-8.14 12.78 -1.04 0.19c-12.89,16.58 -29.13,30.99 -48.41,42.12 -80.06,46.22 -182.82,18.69 -229.04,-61.37 -46.23,-80.07 -18.7,-182.82 61.37,-229.05 12.5,-7.22 25.56,-12.64 38.87,-16.34zm-282.68 561.37c92.59,0 167.67,75.09 167.67,167.68 0,1.56 -0.02,3.12 -0.06,4.67l-0.2 14.18 -0.85 0.58c-9.64,83.44 -80.54,148.24 -166.56,148.24 -92.59,0 -167.67,-75.08 -167.67,-167.67 0,-50.52 22.35,-95.83 57.71,-126.57l0.01 -1.25 13.32 -9.22c27.32,-19.3 60.65,-30.64 96.63,-30.64z"/>
   <path class="fil2" d="M711.26 969c73.54,0 133.15,59.62 133.15,133.16 0,73.54 -59.61,133.15 -133.15,133.15 -73.54,0 -133.15,-59.61 -133.15,-133.15 0,-73.54 59.61,-133.16 133.15,-133.16z"/>
   <path class="fil2" d="M923.59 601.24c-36.77,-63.69 -14.95,-145.12 48.74,-181.89 63.69,-36.77 145.12,-14.95 181.89,48.73 36.77,63.69 14.95,145.12 -48.74,181.89 -63.68,36.77 -145.12,14.95 -181.89,-48.73z"/>
   <path class="fil2" d="M498.93 601.24c-36.77,63.68 -118.21,85.5 -181.89,48.74 -63.69,-36.78 -85.51,-118.21 -48.74,-181.9 36.77,-63.68 118.21,-85.5 181.89,-48.73 63.69,36.77 85.51,118.2 48.74,181.89z"/>
   <path class="fil2" d="M1188.3 918.32c-260.91,-130.42 -457.93,-127.9 -594.62,-0.64l28.48 -16.44c56.13,-28.98 122.41,-30.6 179.75,-4.68l228.87 132.14c50.57,29.19 115.83,11.71 145.03,-38.87 12.95,-22.42 16.72,-47.73 12.49,-71.51z"/>
   <path class="fil2" d="M859.86 844.32l192.07 110.89c46.64,26.93 105.78,14.15 137.6,-27.68 -0.28,-3.08 -0.69,-6.16 -1.23,-9.21 -5.3,-29.84 -23.2,-57.27 -51.35,-73.52l-194.22 -112.14 -19.51 -11.26 1.06 -0.35c-14.95,-8.22 -28.62,-18.14 -40.82,-29.44 -39.62,-36.69 -63.74,-87.94 -66.02,-142.96l0 -251.7c0,-58.39 -47.78,-106.17 -106.18,-106.17 -51.97,0 -95.54,37.85 -104.49,87.34 -1.11,6.12 -1.68,12.41 -1.68,18.83l0 245.36 0 8.32c-1.4,72.37 -40.65,139 -103.79,175.19l-210.9 121.76c-50.58,29.2 -68.06,94.47 -38.86,145.04 29.19,50.57 94.46,68.06 145.03,38.87l197.11 -113.81c76.09,-49.93 164.82,-74.38 266.18,-73.36z"/>
   <path class="fil2" d="M668.88 199.66c-31.91,14.01 -55.75,43.29 -62.11,78.46 -3.43,124.34 40.66,245.39 137.62,330.99 -6.82,-19.22 -10.84,-39.57 -11.71,-60.46l0 -251.7c0,-43.35 -26.33,-80.84 -63.8,-97.29z"/>
  </g>
 </g>
</svg>
