<?xml version="1.0" encoding="UTF-8" standalone="no"?>
<!-- Creator: CorelDRAW (Evaluation Version) -->

<svg
   xml:space="preserve"
   width="6855px"
   height="6855px"
   version="1.1"
   style="shape-rendering:geometricPrecision; text-rendering:geometricPrecision; image-rendering:optimizeQuality; fill-rule:evenodd; clip-rule:evenodd"
   viewBox="0 0 1426.09 1426.09"
   id="svg25"
   sodipodi:docname="logo.svg"
   inkscape:version="1.2.2 (732a01da63, 2022-12-09)"
   xmlns:inkscape="http://www.inkscape.org/namespaces/inkscape"
   xmlns:sodipodi="http://sodipodi.sourceforge.net/DTD/sodipodi-0.dtd"
   xmlns="http://www.w3.org/2000/svg"
   xmlns:svg="http://www.w3.org/2000/svg"><sodipodi:namedview
   id="namedview27"
   pagecolor="#ffffff"
   bordercolor="#000000"
   borderopacity="0.25"
   inkscape:showpageshadow="2"
   inkscape:pageopacity="0.0"
   inkscape:pagecheckerboard="0"
   inkscape:deskcolor="#d1d1d1"
   showgrid="false"
   inkscape:zoom="0.14981765"
   inkscape:cx="3424.1626"
   inkscape:cy="3424.1626"
   inkscape:window-width="2560"
   inkscape:window-height="1369"
   inkscape:window-x="-8"
   inkscape:window-y="-8"
   inkscape:window-maximized="1"
   inkscape:current-layer="_1904685246608" />
 <defs
   id="defs4">
  <style
   type="text/css"
   id="style2">
   <![CDATA[
    .fil1 {fill:black}
    .fil0 {fill:#F6F46E}
    .fil2 {fill:white}
   ]]>
  </style>
 </defs>
 <g
   id="Layer_x0020_1"
   inkscape:label="Layer 1">
  <metadata
   id="CorelCorpID_0Corel-Layer" />
  <g
   id="_1904685246608">
   <rect
   class="fil0"
   width="1426.09"
   height="1426.09"
   rx="433.21"
   ry="433.21"
   id="rect7" />
   <path
   class="fil1"
   d="m 1196.3533,443.00355 c 38.725,67.07364 15.5825,153.46964 -51.4911,192.19472 L 927.53305,760.67322 c -38.01176,24.3017 -64.94552,62.61107 -75.00017,106.55591 l -0.0536,0.22723 c -3.09956,13.67139 -4.52061,27.69008 -4.2263,41.69986 l 1.66152,79.25776 -2.48935,-2.21163 0.004,169.72715 c -0.009,32.5445 -11.288,63.6284 -31.42027,88.4387 -25.08871,30.9049 -68.92723,52.2544 -109.27114,52.2564 -77.34142,7e-4 -140.69452,-63.35 -140.69532,-140.6914 l -0.003,-262.48474 C 560.44514,842.11873 531.9951,795.90184 488.63351,767.79735 L 263.78149,637.98128 c -66.9793,-38.67136 -90.16596,-125.21223 -51.49459,-192.19143 39.13712,-67.80748 122.7605,-90.33254 190.50269,-52.45956 0.56582,0.31974 1.1316,0.63982 1.68881,0.96464 L 615.37551,516.0599 c 52.26681,30.16817 116.47099,31.19365 169.40161,2.11216 L 1004.4271,391.35725 c 69.7844,-40.2901 153.6713,-14.6136 191.9263,51.64601 z m -513.02453,-260.8444 0.63214,-0.66529 12.2104,-0.49084 c 2.67977,-0.1387 5.38592,-0.2115 8.10994,-0.21344 0.18399,0 0.36696,-1.7e-4 0.55048,-0.01 92.44408,9e-5 167.66933,75.21194 167.66812,167.66929 0.002,0.18362 -0.005,0.37231 -0.002,0.55592 -0.0317,9.84479 -0.91784,19.4902 -2.58159,28.8684 -5.75108,32.4188 -20.95396,62.5466 -44.11567,86.6694 l -9.60912,10.0165 -1.02811,0.0393 c -29.50971,25.84784 -68.12423,41.52553 -110.3411,41.52376 -92.44402,0.002 -167.66936,-75.21175 -167.66806,-167.66959 0.004,-85.1729 63.83276,-155.71858 146.17527,-166.29719 z m 466.56683,614.07741 1.0422,0.045 9.7636,11.59112 c 15.4258,18.29852 26.3927,39.33321 32.7639,61.50859 12.2147,42.27659 7.9288,89.25311 -15.7182,130.29532 -0.022,0.0381 -0.053,0.0722 -0.063,0.10795 -0.035,0.0622 -0.069,0.12068 -0.1029,0.17829 -12.4985,21.59197 -29.111,39.35847 -48.2725,52.86947 -29.8743,21.1163 -66.3805,32.2857 -104.1655,30.6604 l -15.1377,-0.6596 -0.6847,-0.8056 c -20.80346,-2.8731 -41.40298,-9.7322 -60.68186,-20.8642 -80.05788,-46.2238 -107.59611,-148.98181 -61.37211,-229.0395 46.22798,-80.07116 148.97687,-107.60466 229.04807,-61.37698 12.503,7.21515 23.7267,15.81568 33.5859,25.49239 z m -627.50068,35.87688 c 46.29501,80.18533 18.80512,182.75146 -61.38014,229.04666 -1.35101,0.7799 -2.71201,1.5424 -4.07421,2.2828 l -12.3804,6.917 -0.92718,-0.4464 c -77.08119,33.3717 -168.64956,4.3703 -211.65951,-70.12514 -46.29519,-80.18529 -18.81401,-182.74649 61.3713,-229.0415 43.7516,-25.25999 94.16633,-28.55932 138.46791,-13.30668 l 1.0875,-0.61632 14.64484,6.92546 c 30.37426,14.00982 56.85999,37.20445 74.84997,68.36402 z"
   id="path9" />
   <path
   class="fil2"
   d="m 492.49976,849.37348 c 36.76999,63.68747 14.94246,145.12135 -48.74508,181.89132 -63.68719,36.7698 -145.11618,14.9512 -181.88622,-48.73623 -36.76998,-63.68761 -14.9511,-145.11647 48.73649,-181.8864 63.68731,-36.76994 145.12482,-14.9562 181.89481,48.73131 z"
   id="path11" />
   <path
   class="fil2"
   d="m 917.15424,849.37664 c 36.77194,-63.68887 118.20256,-85.50708 181.89146,-48.73485 63.6889,36.77181 85.5071,118.20247 48.7436,181.88623 -36.7711,63.68938 -118.2027,85.50728 -181.89147,48.73498 -63.68388,-36.76328 -85.50708,-118.2026 -48.74359,-181.88636 z"
   id="path13" />
   <path
   class="fil2"
   d="m 704.82426,481.61029 c -73.53352,-0.004 -133.15007,-59.6227 -133.15507,-133.15127 0.007,-73.54729 59.61785,-133.15876 133.15999,-133.15994 73.53353,-7e-5 133.15014,59.62265 133.1465,133.15618 9.4e-4,73.54199 -59.60926,133.1538 -133.15142,133.15503 z"
   id="path15" />
   <path
   class="fil2"
   d="M 774.17814,1236.7 C 756.67004,945.53545 655.97779,776.17127 477.42237,721.42429 l 28.4788,16.44213 c 53.16229,34.11979 87.70515,90.71001 93.92783,153.32782 l -0.003,264.27976 c 0.006,58.39 47.77377,106.1671 106.17728,106.1649 25.89124,0 49.69544,-9.3851 68.17454,-24.9385 z"
   id="path17" />
   <path
   class="fil2"
   d="m 674.7758,915.72483 10e-4,221.78267 c -0.002,53.8565 40.63568,98.6832 92.77157,105.325 2.52741,-1.7823 4.98972,-3.6776 7.36116,-5.6702 23.19209,-19.5099 37.99719,-48.7269 37.9952,-81.2305 l 0.006,-224.26944 -0.004,-22.52617 0.8331,0.74301 c -0.35627,-17.05709 1.39971,-33.85563 5.08581,-50.07114 11.96446,-52.65695 44.28826,-99.17047 90.79698,-128.65502 L 1127.6012,605.3032 c 50.5673,-29.19517 68.056,-94.46386 38.8559,-145.03965 -25.9849,-45.0075 -80.5491,-63.8152 -127.8836,-46.8211 -5.8553,2.0988 -11.5875,4.75009 -17.1473,7.96 l -212.48802,122.68011 -7.20534,4.15999 c -63.37327,34.97256 -140.70158,34.29607 -203.61302,-2.28978 L 387.22287,424.18789 c -50.57801,-29.20353 -115.8437,-11.70687 -145.03841,38.86618 -29.20369,50.56227 -11.71175,115.83481 38.85243,145.03453 l 197.11727,113.79763 c 81.28567,40.9309 146.82493,105.54833 196.62161,193.83865 z"
   id="path19" />
   
  </g>
 </g>
</svg>
