<?xml version="1.0" encoding="UTF-8" standalone="no"?>
<!-- Created with Inkscape (http://www.inkscape.org/) -->

<svg
   width="186.1059mm"
   height="186.45615mm"
   viewBox="0 0 186.10589 186.45615"
   version="1.1"
   id="svg5"
   inkscape:export-filename="test.svg"
   inkscape:export-xdpi="96.415588"
   inkscape:export-ydpi="96.415588"
   xmlns:inkscape="http://www.inkscape.org/namespaces/inkscape"
   xmlns:sodipodi="http://sodipodi.sourceforge.net/DTD/sodipodi-0.dtd"
   xmlns="http://www.w3.org/2000/svg"
   xmlns:svg="http://www.w3.org/2000/svg">
  <sodipodi:namedview
     id="namedview7"
     pagecolor="#ffffff"
     bordercolor="#000000"
     borderopacity="0.25"
     inkscape:showpageshadow="2"
     inkscape:pageopacity="0.0"
     inkscape:pagecheckerboard="0"
     inkscape:deskcolor="#d1d1d1"
     inkscape:document-units="mm"
     showgrid="false" />
  <defs
     id="defs2" />
  <g
     inkscape:label="Layer 1"
     inkscape:groupmode="layer"
     id="layer1"
     transform="translate(0.00845692,-1.2847461)">
    <ellipse
       style="fill:none;fill-opacity:0.898039;stroke:none;stroke-width:0.2446"
       id="path234"
       cx="94.766792"
       cy="92.278732"
       rx="41.539963"
       ry="41.558834"
       transform="matrix(0.99971075,0.02405009,-0.01845781,0.99982964,0,0)" />
    <g
       aria-label="Discover       Connect        Experience       Promote  "
       transform="matrix(1.9078186,0,0,1.9078186,-84.452156,-85.949208)"
       id="text1973"
       style="font-size:4.15065px;line-height:125%;font-family:Calibri;letter-spacing:0px;word-spacing:0px;fill:#f7f570;stroke:#000000;stroke-width:0.264583">
      <path
         d="m 134.65202,96.23132 7.01344,0.743429 -0.32069,3.025411 q -0.15098,1.42429 -1.10493,2.17742 -1.01035,0.81669 -2.69986,0.6376 -1.59128,-0.16868 -2.45097,-1.05446 -0.9222,-0.952 -0.75769,-2.503993 z m 5.55337,2.14816 -4.42024,-0.468547 -0.14577,1.375185 q -0.0791,0.746532 0.34342,1.258172 0.49281,0.59856 1.57331,0.7131 1.12962,0.11974 1.73533,-0.25311 0.68071,-0.4245 0.79733,-1.524652 z"
         style="font-size:9.87778px;font-family:HelveticaNeue;-inkscape-font-specification:'HelveticaNeue, Normal'"
         id="path4120" />
      <path
         d="m 133.68522,103.37343 4.97868,1.13677 -0.31223,1.36745 -4.97868,-1.13676 z m 6.56356,2.93738 -1.12671,-0.25726 0.31223,-1.36745 1.1267,0.25725 z"
         style="font-size:9.87778px;font-family:HelveticaNeue;-inkscape-font-specification:'HelveticaNeue, Normal'"
         id="path4122" />
      <path
         d="m 134.7933,106.11387 -0.41946,1.26581 q -0.41567,-0.12734 -0.73386,0.11062 -0.27764,0.20977 -0.42057,0.64108 -0.11496,0.34692 -0.0614,0.62483 0.0725,0.3466 0.39125,0.45224 0.28129,0.0932 0.58056,-0.24466 0.21511,-0.2409 0.6698,-1.01636 0.38616,-0.66289 0.74491,-0.92903 0.47727,-0.37255 1.0586,-0.1799 1.55647,0.51579 0.85736,2.62547 -0.66493,2.00654 -2.25553,1.62512 l 0.41947,-1.2658 q 0.67188,0.17062 0.95774,-0.69201 0.24546,-0.74073 -0.2046,-0.88988 -0.30942,-0.10253 -0.63355,0.31036 -0.0374,0.05 -0.58868,0.95999 -0.40803,0.66605 -0.76367,0.92281 -0.49602,0.36634 -1.10548,0.16437 -0.88138,-0.29207 -1.09214,-1.13196 -0.17614,-0.69313 0.13769,-1.64015 0.31382,-0.94701 0.88462,-1.41343 0.67373,-0.55719 1.57691,-0.29952 z"
         style="font-size:9.87778px;font-family:HelveticaNeue;-inkscape-font-specification:'HelveticaNeue, Normal'"
         id="path4124" />
      <path
         d="m 132.26302,116.65629 0.60168,-1.23415 q 0.85082,0.26095 1.24472,-0.54703 0.26838,-0.55048 -0.0771,-1.08156 -0.29588,-0.42997 -0.89076,-0.71999 -0.57712,-0.28136 -1.08033,-0.24097 -0.61365,0.0415 -0.8777,0.5831 -0.4242,0.87012 0.44314,1.45782 l -0.59302,1.21639 q -0.84937,-0.55694 -1.04769,-1.3899 -0.20264,-0.82408 0.24321,-1.7386 0.50213,-1.02994 1.47515,-1.35777 0.9687,-0.31895 2.00752,0.1875 1.10097,0.53675 1.47708,1.47837 0.39864,0.98557 -0.13378,2.07766 -0.42421,0.87012 -1.13608,1.24835 -0.79545,0.4144 -1.65603,0.0608 z"
         style="font-size:9.87778px;font-family:HelveticaNeue;-inkscape-font-specification:'HelveticaNeue, Normal'"
         id="path4126" />
      <path
         d="m 131.06788,117.21907 q 1.01388,0.68723 1.21436,1.69424 0.20865,1.01255 -0.46196,2.0019 -0.67615,0.99752 -1.69397,1.17874 -1.00964,0.18675 -2.02352,-0.50048 -1.0057,-0.68169 -1.21435,-1.69424 -0.20048,-1.00701 0.47567,-2.00453 0.67061,-0.98935 1.68025,-1.17611 1.01782,-0.18122 2.02352,0.50048 z m -0.787,1.16105 q -0.58052,-0.39349 -1.07357,-0.4055 -0.60253,-0.0266 -0.96832,0.51309 -0.69832,1.03024 0.6508,1.9447 1.35729,0.92001 2.05561,-0.11022 0.69278,-1.02206 -0.66452,-1.94207 z"
         style="font-size:9.87778px;font-family:HelveticaNeue;-inkscape-font-specification:'HelveticaNeue, Normal'"
         id="path4128" />
      <path
         d="m 126.16119,127.65872 -2.64935,-4.69559 1.04161,-1.16224 4.96989,2.10629 -0.98227,1.09604 -3.31523,-1.52534 -0.0132,0.0147 1.87808,3.12893 z"
         style="font-size:9.87778px;font-family:HelveticaNeue;-inkscape-font-specification:'HelveticaNeue, Normal'"
         id="path4130" />
      <path
         d="m 119.69763,129.48485 2.79478,-2.40085 q -0.88815,-0.94292 -1.79477,-0.1641 -0.3072,0.2639 -0.41285,0.64115 -0.10998,0.3419 0.005,0.58176 l -0.93659,0.80458 q -0.69288,-1.67062 0.69327,-2.86139 0.90662,-0.77883 1.92884,-0.68031 1.02116,0.11245 1.79999,1.01907 0.75952,0.88414 0.70817,1.93095 -0.0524,1.06074 -0.92906,1.81382 -0.94408,0.81101 -2.06612,0.55082 -1.03308,-0.23243 -1.79058,-1.2355 z m 3.37407,-1.7265 -1.73081,1.48685 q 0.85787,0.69547 1.5547,0.0969 0.44956,-0.3862 0.43186,-0.89188 -0.0133,-0.37926 -0.25575,-0.69184 z"
         style="font-size:9.87778px;font-family:HelveticaNeue;-inkscape-font-specification:'HelveticaNeue, Normal'"
         id="path4132" />
      <path
         d="m 117.55335,128.26011 2.86167,4.2297 -1.10447,0.74725 -0.53137,-0.7854 -0.0164,0.0111 q 0.11025,0.49787 -0.10268,1.01164 -0.21293,0.51377 -0.63836,0.80159 -0.1309,0.0886 -0.28129,0.13069 l -0.73064,-1.07993 q 0.20766,-0.0809 0.44492,-0.24138 1.14537,-0.77492 0.22654,-2.13301 l -1.28968,-1.90623 z"
         style="font-size:9.87778px;font-family:HelveticaNeue;-inkscape-font-specification:'HelveticaNeue, Normal'"
         id="path4134" />
      <path
         d="m 89.765136,140.76732 1.501394,0.009 q 0.0659,0.52394 0.508186,0.88229 0.442288,0.35835 1.025066,0.36196 0.977882,0.006 1.486291,-0.74151 0.438593,-0.63935 0.44496,-1.66662 0.0061,-0.98776 -0.424575,-1.62262 -0.509044,-0.744 -1.477047,-0.75 -0.691432,-0.004 -1.118923,0.43757 -0.397675,0.41241 -0.491042,1.13292 l -1.501393,-0.009 q 0.126672,-1.31299 0.981043,-2.09793 0.844431,-0.77513 2.138395,-0.76711 1.590292,0.01 2.541807,1.08258 0.912311,1.02308 0.902516,2.6035 -0.01004,1.61992 -0.935022,2.6415 -0.954921,1.07078 -2.55509,1.06086 -1.205066,-0.007 -2.030683,-0.67441 -0.864942,-0.69682 -0.995883,-1.88298 z"
         style="font-size:9.87778px;font-family:HelveticaNeue;-inkscape-font-specification:'HelveticaNeue, Normal'"
         id="path4136" />
      <path
         d="m 88.559455,138.48404 q -0.201726,1.20812 -1.033341,1.81034 -0.833243,0.61196 -2.012133,0.41511 -1.188633,-0.19847 -1.777854,-1.04794 -0.590846,-0.83973 -0.389121,-2.04785 0.200098,-1.19838 1.033341,-1.81034 0.831616,-0.60222 2.020249,-0.40374 1.17889,0.19684 1.769737,1.03657 0.58922,0.84948 0.389122,2.04785 z m -1.383491,-0.231 q 0.115504,-0.69175 -0.07923,-1.14488 -0.227178,-0.55868 -0.87021,-0.66605 -1.227604,-0.20498 -1.496029,1.40259 -0.270052,1.61733 0.957553,1.8223 1.217862,0.20336 1.487914,-1.41396 z"
         style="font-size:9.87778px;font-family:HelveticaNeue;-inkscape-font-specification:'HelveticaNeue, Normal'"
         id="path4138" />
      <path
         d="m 82.87978,134.868 -1.55235,4.86515 -1.270399,-0.40535 0.216188,-0.67755 -0.02823,-0.009 q -0.756973,0.65016 -1.745061,0.33488 -1.006909,-0.32128 -1.246813,-0.99919 -0.207463,-0.58462 0.107811,-1.57271 l 0.954831,-2.99249 1.336271,0.42637 -0.876763,2.74782 q -0.381331,1.19512 0.475011,1.46836 0.545801,0.17415 0.895562,-0.0772 0.349761,-0.25129 0.583964,-0.9853 l 0.813708,-2.55021 z"
         style="font-size:9.87778px;font-family:HelveticaNeue;-inkscape-font-specification:'HelveticaNeue, Normal'"
         id="path4140" />
      <path
         d="m 77.318464,133.01348 -2.221799,4.59817 -1.200682,-0.58016 0.309419,-0.64037 -0.02668,-0.0129 q -0.840963,0.53711 -1.774826,0.0859 -0.951652,-0.45983 -1.093731,-1.16477 -0.123096,-0.608 0.32814,-1.54187 l 1.3666,-2.82827 1.262939,0.61024 -1.254865,2.59703 q -0.54578,1.12953 0.263568,1.52061 0.515849,0.24925 0.897503,0.0497 0.381654,-0.19956 0.716858,-0.89328 l 1.164618,-2.41026 z"
         style="font-size:9.87778px;font-family:HelveticaNeue;-inkscape-font-specification:'HelveticaNeue, Normal'"
         id="path4142" />
      <path
         d="m 66.822103,129.54535 3.06515,2.04444 q 0.668716,-1.10938 -0.325608,-1.77259 -0.33692,-0.22473 -0.728684,-0.22482 -0.358884,-0.0138 -0.558915,0.16151 l -1.027195,-0.68513 q 1.422109,-1.11744 2.942357,-0.10344 0.994325,0.66321 1.174908,1.67417 0.166885,1.01369 -0.496326,2.00801 -0.646768,0.96968 -1.668693,1.20231 -1.035624,0.23537 -1.997078,-0.40592 -1.035413,-0.69061 -1.087203,-1.84126 -0.05455,-1.0575 0.707287,-2.05728 z m 2.571853,2.78402 -1.898257,-1.26613 q -0.438567,1.01356 0.325666,1.5233 0.493053,0.32886 0.975258,0.17555 0.361654,-0.11498 0.597333,-0.43272 z"
         style="font-size:9.87778px;font-family:HelveticaNeue;-inkscape-font-specification:'HelveticaNeue, Normal'"
         id="path4144" />
      <path
         d="m 61.571068,126.45261 1.029331,0.90864 q -0.478122,0.75059 0.195757,1.34546 0.459126,0.40529 1.063036,0.21373 0.49324,-0.17068 0.93122,-0.66684 0.424907,-0.48134 0.519999,-0.97713 0.123436,-0.60253 -0.328284,-1.00129 -0.725716,-0.64063 -1.523182,0.0389 l -1.014521,-0.89558 q 0.763045,-0.67035 1.618734,-0.63966 0.848283,0.0242 1.611025,0.69747 0.85901,0.75829 0.915854,1.78349 0.04944,1.01865 -0.715393,1.88507 -0.810591,0.91825 -1.818368,1.02999 -1.05614,0.12176 -1.966987,-0.6823 -0.725715,-0.64062 -0.900685,-1.42752 -0.187585,-0.87709 0.382464,-1.6124 z"
         style="font-size:9.87778px;font-family:HelveticaNeue;-inkscape-font-specification:'HelveticaNeue, Normal'"
         id="path4146" />
      <path
         d="m 57.121783,126.49957 1.131601,-1.03131 -0.69198,-0.75927 0.693562,-0.6321 0.69198,0.75927 1.868966,-1.70334 q 0.262824,-0.23953 0.270588,-0.40698 0.0078,-0.16745 -0.231768,-0.43027 -0.159687,-0.17522 -0.321963,-0.29462 l 0.810372,-0.73855 q 0.236113,0.18575 0.588757,0.57268 1.084544,1.19001 0.186564,2.00841 l -2.226698,2.02936 0.572214,0.62786 -0.693562,0.63209 -0.572214,-0.62785 -1.131601,1.03131 z"
         style="font-size:9.87778px;font-family:HelveticaNeue;-inkscape-font-specification:'HelveticaNeue, Normal'"
         id="path4148" />
      <path
         d="m 51.92472,100.79008 -7.021319,0.66495 -0.497314,-5.251239 1.298059,-0.122931 0.3511,3.707335 1.504568,-0.142489 -0.322229,-3.402488 1.199721,-0.113618 0.322229,3.402487 1.720912,-0.162977 -0.35855,-3.786005 1.298058,-0.122932 z"
         style="font-size:9.87778px;font-family:HelveticaNeue;-inkscape-font-specification:'HelveticaNeue, Normal'"
         id="path4150" />
      <path
         d="m 51.424511,95.085754 -2.601942,-1.955533 -2.492701,1.569364 0.07153,-1.598601 1.372349,-0.83837 -1.292428,-0.947721 0.06932,-1.549261 2.312969,1.7844 2.798011,-1.763343 -0.07153,1.598601 -1.656156,0.99376 1.560781,1.137707 z"
         style="font-size:9.87778px;font-family:HelveticaNeue;-inkscape-font-specification:'HelveticaNeue, Normal'"
         id="path4152" />
      <path
         d="m 53.500382,89.573043 -6.79234,-1.23983 0.239452,-1.311826 0.641337,0.117066 0.0035,-0.01944 q -0.690466,-0.618041 -0.504226,-1.63835 0.203978,-1.117481 1.131969,-1.580673 0.829894,-0.420853 1.986244,-0.209781 1.078612,0.196883 1.696584,0.88202 0.686842,0.747913 0.495281,1.797373 -0.182694,1.000875 -1.03287,1.36782 l -0.0035,0.01944 2.390437,0.436335 z m -2.209296,-3.023969 q 0.218168,-1.195219 -1.375457,-1.486109 -0.680206,-0.12416 -1.157428,0.06988 -0.573546,0.226661 -0.68529,0.838846 -0.115292,0.63162 0.335019,1.025087 0.379667,0.340409 1.06959,0.466343 0.680206,0.12416 1.147711,-0.07165 0.552337,-0.220492 0.665855,-0.842394 z"
         style="font-size:9.87778px;font-family:HelveticaNeue;-inkscape-font-specification:'HelveticaNeue, Normal'"
         id="path4154" />
      <path
         d="m 52.339556,78.033404 -1.168324,3.494268 q 1.246003,0.354115 1.625003,-0.779415 0.128422,-0.384088 0.02569,-0.762142 -0.08089,-0.349921 -0.302535,-0.496935 l 0.391529,-1.171001 q 1.451497,1.078985 0.872033,2.812067 -0.379,1.13353 -1.307122,1.573109 -0.934357,0.427079 -2.067887,0.04808 -1.105425,-0.369604 -1.598109,-1.294651 -0.498919,-0.937547 -0.132448,-2.033604 0.394662,-1.18037 1.491379,-1.532333 1.006112,-0.33018 2.170792,0.142558 z m -2.011445,3.212367 0.723546,-2.164011 q -1.093126,-0.157185 -1.384424,0.71404 -0.187934,0.56208 0.08655,0.987146 0.205867,0.318799 0.574323,0.462825 z"
         style="font-size:9.87778px;font-family:HelveticaNeue;-inkscape-font-specification:'HelveticaNeue, Normal'"
         id="path4156" />
      <path
         d="m 54.809567,77.985742 -4.623623,-2.168326 0.566197,-1.20733 0.858545,0.40263 0.0084,-0.01789 q -0.349585,-0.371235 -0.429703,-0.92158 -0.08012,-0.550345 0.137973,-1.01539 0.06711,-0.143091 0.174732,-0.256268 l 1.180499,0.553615 q -0.136985,0.17578 -0.258613,0.435132 -0.587167,1.252045 0.8974,1.948258 l 2.083761,0.977215 z"
         style="font-size:9.87778px;font-family:HelveticaNeue;-inkscape-font-specification:'HelveticaNeue, Normal'"
         id="path4158" />
      <path
         d="m 56.520466,74.501704 -4.441365,-2.520676 0.692333,-1.219872 4.441365,2.520676 z m -5.441389,-4.701038 1.005105,0.570443 -0.692332,1.219872 -1.005106,-0.570443 z"
         style="font-size:9.87778px;font-family:HelveticaNeue;-inkscape-font-specification:'HelveticaNeue, Normal'"
         id="path4160" />
      <path
         d="m 58.729654,67.074641 -2.128183,3.007611 q 1.090526,0.699052 1.780902,-0.276607 0.233929,-0.330596 0.244821,-0.722207 0.02367,-0.358369 -0.146037,-0.563157 l 0.713198,-1.007913 q 1.077797,1.45238 0.02226,2.944091 -0.690376,0.975659 -1.705925,1.128298 -1.017908,0.13887 -1.993567,-0.551506 -0.95147,-0.673259 -1.155836,-1.70121 -0.206725,-1.04172 0.460829,-1.985126 0.718904,-1.015976 1.870539,-1.036019 1.058602,-0.02537 2.036996,0.763745 z m -2.85388,2.494109 1.31799,-1.862623 q -1.001075,-0.466348 -1.531694,0.283539 -0.342335,0.483798 -0.202382,0.970047 0.104965,0.364687 0.416086,0.609037 z"
         style="font-size:9.87778px;font-family:HelveticaNeue;-inkscape-font-specification:'HelveticaNeue, Normal'"
         id="path4162" />
      <path
         d="m 61.073641,67.711199 -3.718962,-3.499836 0.913884,-0.971102 0.517921,0.487404 0.02031,-0.02158 q -0.259845,-0.963425 0.450954,-1.718727 0.724337,-0.769688 1.43941,-0.693564 0.616909,0.06513 1.372211,0.775926 l 2.287485,2.152704 -0.96127,1.021456 -2.100459,-1.976697 q -0.913555,-0.859727 -1.52958,-0.205132 -0.392632,0.417214 -0.316872,0.841174 0.07576,0.42396 0.636842,0.951981 l 1.949398,1.834537 z"
         style="font-size:9.87778px;font-family:HelveticaNeue;-inkscape-font-specification:'HelveticaNeue, Normal'"
         id="path4164" />
      <path
         d="m 66.858707,57.881368 -1.070484,0.859782 q -0.658326,-0.598821 -1.359147,-0.03594 -0.477482,0.3835 -0.391424,1.011193 0.0843,0.515084 0.498724,1.031072 0.402056,0.500586 0.874451,0.678622 0.572757,0.224122 1.042538,-0.153192 0.75473,-0.606177 0.220775,-1.507598 l 1.055081,-0.84741 q 0.530802,0.865946 0.355014,1.703946 -0.168086,0.831814 -0.961322,1.468918 -0.893354,0.717516 -1.913276,0.599157 -1.012221,-0.124543 -1.735922,-1.025598 -0.766999,-0.954965 -0.705704,-1.967063 0.05966,-1.061461 1.00692,-1.822274 0.75473,-0.606177 1.559921,-0.644755 0.896212,-0.03567 1.523855,0.651143 z"
         style="font-size:9.87778px;font-family:HelveticaNeue;-inkscape-font-specification:'HelveticaNeue, Normal'"
         id="path4166" />
      <path
         d="m 72.634821,55.617692 -3.161065,1.892765 q 0.715599,1.07974 1.741038,0.465733 0.347463,-0.208052 0.515491,-0.561952 0.166301,-0.318327 0.09369,-0.57419 l 1.059338,-0.634305 q 0.399894,1.763842 -1.167926,2.702613 -1.02544,0.614006 -2.016201,0.343763 -0.987362,-0.283792 -1.601368,-1.309232 -0.598784,-1.000015 -0.370862,-2.023001 0.231322,-1.036536 1.222862,-1.630245 1.067813,-0.639379 2.129565,-0.192893 0.978783,0.404061 1.555439,1.520944 z m -3.617765,1.130042 1.957657,-1.172195 q -0.727682,-0.830729 -1.51583,-0.358806 -0.508482,0.304466 -0.576695,0.805836 -0.05116,0.376028 0.134868,0.725165 z"
         style="font-size:9.87778px;font-family:HelveticaNeue;-inkscape-font-specification:'HelveticaNeue, Normal'"
         id="path4168" />
      <path
         d="m 93.27601,52.899798 0.5178,-7.033702 3.172062,0.233518 q 1.23139,0.09065 1.820223,0.83722 0.517276,0.642255 0.446931,1.597814 -0.07035,0.955559 -0.676097,1.51514 -0.691813,0.652291 -1.923204,0.56164 l -1.625435,-0.11966 -0.185653,2.521888 z m 1.975951,-5.718007 -0.155195,2.10814 1.201837,0.08848 q 0.630472,0.04641 0.959487,-0.117551 0.432602,-0.225671 0.477565,-0.83644 0.04496,-0.61077 -0.349929,-0.897358 -0.301456,-0.210378 -0.931928,-0.256791 z"
         style="font-size:9.87778px;font-family:HelveticaNeue;-inkscape-font-specification:'HelveticaNeue, Normal'"
         id="path4170" />
      <path
         d="m 99.685225,53.523236 1.006375,-5.00667 1.30735,0.262786 -0.18687,0.929672 0.0194,0.0039 q 0.27743,-0.427851 0.79293,-0.636569 0.51549,-0.208718 1.01906,-0.107497 0.15495,0.03115 0.29048,0.108764 l -0.25695,1.278299 q -0.20332,-0.09125 -0.48415,-0.147695 -1.35578,-0.272519 -1.67891,1.335038 l -0.45355,2.256391 z"
         style="font-size:9.87778px;font-family:HelveticaNeue;-inkscape-font-specification:'HelveticaNeue, Normal'"
         id="path4172" />
      <path
         d="m 104.10422,51.809739 q 0.3825,-1.163588 1.29578,-1.632804 0.91637,-0.478599 2.05181,-0.105351 1.14482,0.376334 1.59848,1.3053 0.45675,0.919582 0.0742,2.08317 -0.37942,1.154204 -1.29579,1.632803 -0.91328,0.469216 -2.0581,0.09288 -1.13544,-0.373249 -1.59219,-1.292831 -0.45366,-0.928966 -0.0742,-2.08317 z m 1.33249,0.438027 q -0.21901,0.666248 -0.0952,1.143653 0.13988,0.586667 0.75921,0.790257 1.18235,0.388672 1.69133,-1.15965 0.51206,-1.557706 -0.67029,-1.946378 -1.17298,-0.385588 -1.68504,1.172118 z"
         style="font-size:9.87778px;font-family:HelveticaNeue;-inkscape-font-specification:'HelveticaNeue, Normal'"
         id="path4174" />
      <path
         d="m 109.25876,56.160645 2.43941,-4.486517 1.16285,0.632264 -0.33029,0.607459 0.0174,0.0094 q 0.90834,-0.450566 1.76746,0.01655 0.97194,0.52846 0.9046,1.458783 0.90042,-0.477358 1.75954,-0.01024 1.64014,0.891775 0.76724,2.497202 l -1.63256,3.002581 -1.23228,-0.670011 1.38249,-2.542648 q 0.29726,-0.546713 0.30712,-0.83368 0.01,-0.410734 -0.46759,-0.670245 -0.8244,-0.448247 -1.44251,0.688568 l -1.3589,2.499259 -1.23227,-0.670011 1.36833,-2.516615 q 0.3067,-0.564068 0.3324,-0.797449 0.042,-0.449407 -0.47003,-0.727791 -0.28638,-0.155707 -0.60713,-0.08275 -0.47603,0.08972 -0.78745,0.662465 l -1.41551,2.603395 z"
         style="font-size:9.87778px;font-family:HelveticaNeue;-inkscape-font-specification:'HelveticaNeue, Normal'"
         id="path4176" />
      <path
         d="m 118.4504,58.531265 q 0.7673,-0.954726 1.78726,-1.072766 1.02615,-0.12574 1.95777,0.622993 0.93933,0.754921 1.0373,1.784091 0.10415,1.021471 -0.66315,1.976196 -0.76111,0.947026 -1.78725,1.072765 -1.01996,0.118041 -1.95929,-0.63688 -0.93163,-0.748733 -1.03578,-1.770204 -0.098,-1.029169 0.66314,-1.976195 z m 1.09332,0.878678 q -0.43934,0.546657 -0.49135,1.037105 -0.0754,0.598381 0.43277,1.00678 0.97013,0.779673 1.99113,-0.490728 1.02719,-1.2781 0.0571,-2.057772 -0.96242,-0.773485 -1.98961,0.504615 z"
         style="font-size:9.87778px;font-family:HelveticaNeue;-inkscape-font-specification:'HelveticaNeue, Normal'"
         id="path4178" />
      <path
         d="m 127.5629,61.090005 -1.08752,1.077698 0.7231,0.729691 -0.66654,0.660524 -0.7231,-0.72969 -1.79616,1.77994 q -0.25259,0.250304 -0.25335,0.417934 -7.6e-4,0.16763 0.24954,0.420215 0.16687,0.16839 0.334,0.280904 l -0.77881,0.771771 q -0.24367,-0.175724 -0.61217,-0.547585 -1.13332,-1.14365 -0.27032,-1.998855 l 2.13996,-2.120632 -0.59795,-0.603398 0.66654,-0.660525 0.59795,0.603398 1.08752,-1.077698 z"
         style="font-size:9.87778px;font-family:HelveticaNeue;-inkscape-font-specification:'HelveticaNeue, Normal'"
         id="path4180" />
      <path
         d="m 128.7937,69.380062 -2.29471,-2.882563 q -0.97546,0.852287 -0.23107,1.787381 0.25224,0.31685 0.62527,0.436531 0.33755,0.12268 0.58154,0.01682 l 0.76901,0.966007 q -1.69535,0.629958 -2.83348,-0.799731 -0.7444,-0.935095 -0.60774,-1.952918 0.15054,-1.016248 1.08563,-1.760646 0.91191,-0.725943 1.95607,-0.635503 1.05804,0.09202 1.77783,0.996197 0.77516,0.973735 0.47321,2.085263 -0.27088,1.023672 -1.30156,1.743159 z m -1.59919,-3.436248 1.42113,1.78518 q 0.72704,-0.831287 0.1549,-1.549996 -0.36912,-0.463683 -0.87511,-0.464899 -0.37949,-9.11e-4 -0.70092,0.229715 z"
         style="font-size:9.87778px;font-family:HelveticaNeue;-inkscape-font-specification:'HelveticaNeue, Normal'"
         id="path4182" />
    </g>
  </g>
</svg>
